<svg width="119" height="101" viewBox="0 0 119 101" fill="none" xmlns="http://www.w3.org/2000/svg">
<path d="M22.6529 49.6082L21.5496 32.918L17.2328 33.17L13.3945 47.1806C13.3945 47.1806 21.7204 49.5738 21.9661 49.6544C22.6598 49.8819 22.6529 49.6082 22.6529 49.6082Z" fill="#E73C3E"/>
<path d="M22.3782 50.2392L5.59766 45.5605L0.976562 45.8847L11.7646 50.7568L19.9428 51.3748C23.2193 51.2187 23.0345 50.4685 22.3782 50.2392Z" fill="#E73C3E"/>
<path d="M42.6187 55.2399C43.7854 56.8429 63.9129 60.8984 66.3934 60.9688L73.9379 49.5594L73.9489 49.5432L74.1014 49.3117C67.0149 49.9011 44.4608 54.6084 44.4608 54.6084C56.3786 50.8869 67.801 48.415 76.5313 47.3223L82.116 39.5116C75.0452 40.2072 65.2659 41.9758 55.8752 44.8478C54.7961 42.6172 53.6561 39.7691 53.8658 38.0613C57.1882 37.7778 60.1604 37.4979 61.201 37.3573C62.4381 37.1902 64.5608 36.3169 64.4893 35.5506C64.417 34.7864 62.1587 34.2769 60.9495 34.2813C58.5023 34.2893 45.024 35.3253 41.9209 35.8345C40.6889 36.0374 38.0394 36.8539 38.0845 37.6902C38.1307 38.5734 40.532 38.9537 42.1725 38.9116C43.2318 38.8837 45.7335 38.7126 48.5998 38.4914L50.2171 46.7028C49.4358 46.9702 48.665 47.2296 47.8697 47.5175L46.3283 49.8348L23.3709 50.4884C23.3709 50.4884 23.955 51.7617 20.1054 51.836L10.7788 51.032L9.30997 51.11C9.2744 51.2708 9.34223 52.1558 9.51127 52.3734C11.6478 52.798 44.8095 51.9247 44.8095 51.9247L42.6187 55.2399Z" fill="#E73C3E"/>
<path d="M94.4861 39.4531L118.898 1.31782C118.592 0.998753 118.312 0.867245 117.947 0.838672C117.581 0.813762 117.126 0.891421 116.47 0.993624C115.26 1.11451 112.925 1.82444 111.151 2.23984L82.0488 38.8857L75.7333 48.1045C70.6154 55.869 41.582 100.148 41.582 100.148C41.582 100.148 43.4704 100.346 43.9863 100.427C46.2897 100.652 49.0763 100.765 49.7206 100.443C50.3648 100.122 50.8121 99.3951 50.8121 99.3951L88.996 47.64L94.4861 39.4531Z" fill="#E73C3E"/>
<path d="M92.1424 48.702C90.4528 48.4675 89.3172 48.4609 89.3172 48.4609L79.1484 62.4715C79.1484 62.4715 82.0407 62.4048 86.128 61.9587L92.1424 48.702Z" fill="#E73C3E"/>
<path d="M98.4588 39.8223L93.2081 47.9205C98.6219 48.9674 102.093 50.8042 104.021 53.0288C105.481 54.9176 105.008 55.0282 103.419 53.5237C100.201 50.4774 95.7355 49.2696 92.6948 48.7865L86.75 61.8897C92.2863 61.2516 99.7527 59.927 105.308 57.1931C106.104 56.8045 108.83 52.6006 111.627 48.2033C112.401 46.5915 108.031 41.5718 98.4588 39.8223Z" fill="#E73C3E"/>
<path d="M98.1399 39.7736C96.9006 39.5593 95.5901 39.3911 94.1818 39.2988L88.6836 47.2784C90.1107 47.4154 91.431 47.5985 92.6605 47.8187L98.1399 39.7736Z" fill="#E73C3E"/>
</svg>