<svg width="386" height="341" viewBox="0 0 386 341" fill="none" xmlns="http://www.w3.org/2000/svg">
<g clip-path="url(#clip0)">
<path fill-rule="evenodd" clip-rule="evenodd" d="M72.3895 110.287H66.0721V105.233H72.3895V110.287Z" fill="#840000"/>
<path fill-rule="evenodd" clip-rule="evenodd" d="M72.3895 120.395H66.0721V115.341H72.3895V120.395Z" fill="#840000"/>
<path fill-rule="evenodd" clip-rule="evenodd" d="M51.9199 120.142H45.6027V115.088H51.9199V120.142Z" fill="#840000"/>
<path fill-rule="evenodd" clip-rule="evenodd" d="M51.9199 130.25H45.6027V125.196H51.9199V130.25Z" fill="#840000"/>
<path fill-rule="evenodd" clip-rule="evenodd" d="M94.1174 230.315H87.8002V225.261H94.1174V230.315Z" fill="#840000"/>
<path fill-rule="evenodd" clip-rule="evenodd" d="M94.1174 240.423H87.8002V235.369H94.1174V240.423Z" fill="#840000"/>
<path fill-rule="evenodd" clip-rule="evenodd" d="M184.336 286.078V270.916H207.079V286.078H184.336Z" fill="#840000"/>
<path fill-rule="evenodd" clip-rule="evenodd" d="M141.053 286.001V270.839H163.796V286.001H141.053Z" fill="#840000"/>
<path fill-rule="evenodd" clip-rule="evenodd" d="M259.675 75.9283V60.7668H282.417V75.9283H259.675Z" fill="#840000"/>
<path fill-rule="evenodd" clip-rule="evenodd" d="M318.85 262.189V247.027H341.593V262.189H318.85Z" fill="#840000"/>
<path fill-rule="evenodd" clip-rule="evenodd" d="M287.843 261.932V246.77H310.586V261.932H287.843Z" fill="#840000"/>
<path fill-rule="evenodd" clip-rule="evenodd" d="M256.849 262.06V246.899H279.592V262.06H256.849Z" fill="#840000"/>
<path fill-rule="evenodd" clip-rule="evenodd" d="M313.52 53.3292V46.7592H317.057V53.3292H313.52Z" fill="#840000"/>
<path fill-rule="evenodd" clip-rule="evenodd" d="M303.92 53.3292V46.7592H307.458V53.3292H303.92Z" fill="#840000"/>
<path fill-rule="evenodd" clip-rule="evenodd" d="M197.982 124.776V121.997H206.069V124.776H197.982Z" fill="#840000"/>
<path fill-rule="evenodd" clip-rule="evenodd" d="M197.982 128.819V126.04H206.069V128.819H197.982Z" fill="#840000"/>
<path fill-rule="evenodd" clip-rule="evenodd" d="M197.982 132.863V130.083H206.069V132.863H197.982Z" fill="#840000"/>
<path fill-rule="evenodd" clip-rule="evenodd" d="M197.982 136.906V134.125H206.069V136.906H197.982Z" fill="#840000"/>
<path fill-rule="evenodd" clip-rule="evenodd" d="M197.982 140.948V138.169H206.069V140.948H197.982Z" fill="#840000"/>
<path fill-rule="evenodd" clip-rule="evenodd" d="M197.982 144.992V142.211H206.069V144.992H197.982Z" fill="#840000"/>
<path fill-rule="evenodd" clip-rule="evenodd" d="M197.982 149.034V146.255H206.069V149.034H197.982Z" fill="#840000"/>
<path fill-rule="evenodd" clip-rule="evenodd" d="M197.982 153.078V150.298H206.069V153.078H197.982Z" fill="#840000"/>
<path fill-rule="evenodd" clip-rule="evenodd" d="M193.306 154.972H196.085V163.059H193.306V154.972Z" fill="#840000"/>
<path fill-rule="evenodd" clip-rule="evenodd" d="M189.259 154.972H192.038V163.059H189.259V154.972Z" fill="#840000"/>
<path fill-rule="evenodd" clip-rule="evenodd" d="M185.212 154.972H187.993V163.059H185.212V154.972Z" fill="#840000"/>
<path fill-rule="evenodd" clip-rule="evenodd" d="M181.177 154.972H183.957V163.059H181.177V154.972Z" fill="#840000"/>
<path fill-rule="evenodd" clip-rule="evenodd" d="M177.13 154.972H179.911V163.059H177.13V154.972Z" fill="#840000"/>
<path fill-rule="evenodd" clip-rule="evenodd" d="M173.084 154.972H175.863V163.059H173.084V154.972Z" fill="#840000"/>
<path fill-rule="evenodd" clip-rule="evenodd" d="M169.049 154.972H171.828V163.059H169.049V154.972Z" fill="#840000"/>
<path fill-rule="evenodd" clip-rule="evenodd" d="M165.002 154.972H167.782V163.059H165.002V154.972Z" fill="#840000"/>
<path fill-rule="evenodd" clip-rule="evenodd" d="M155.02 153.078V150.298H163.106V153.078H155.02Z" fill="#840000"/>
<path fill-rule="evenodd" clip-rule="evenodd" d="M155.02 149.034V146.255H163.106V149.034H155.02Z" fill="#840000"/>
<path fill-rule="evenodd" clip-rule="evenodd" d="M155.02 144.992V142.211H163.106V144.992H155.02Z" fill="#840000"/>
<path fill-rule="evenodd" clip-rule="evenodd" d="M155.02 140.948V138.169H163.106V140.948H155.02Z" fill="#840000"/>
<path fill-rule="evenodd" clip-rule="evenodd" d="M155.02 136.906V134.125H163.106V136.906H155.02Z" fill="#840000"/>
<path fill-rule="evenodd" clip-rule="evenodd" d="M155.02 132.863V130.083H163.106V132.863H155.02Z" fill="#840000"/>
<path fill-rule="evenodd" clip-rule="evenodd" d="M155.02 128.819V126.04H163.106V128.819H155.02Z" fill="#840000"/>
<path fill-rule="evenodd" clip-rule="evenodd" d="M155.02 124.776V121.997H163.106V124.776H155.02Z" fill="#840000"/>
<path fill-rule="evenodd" clip-rule="evenodd" d="M165.002 112.015H167.782V120.101H165.002V112.015Z" fill="#840000"/>
<path fill-rule="evenodd" clip-rule="evenodd" d="M169.049 112.015H171.828V120.101H169.049V112.015Z" fill="#840000"/>
<path fill-rule="evenodd" clip-rule="evenodd" d="M173.084 112.015H175.863V120.101H173.084V112.015Z" fill="#840000"/>
<path fill-rule="evenodd" clip-rule="evenodd" d="M177.13 112.015H179.911V120.101H177.13V112.015Z" fill="#840000"/>
<path fill-rule="evenodd" clip-rule="evenodd" d="M181.177 112.015H183.957V120.101H181.177V112.015Z" fill="#840000"/>
<path fill-rule="evenodd" clip-rule="evenodd" d="M185.212 112.015H187.993V120.101H185.212V112.015Z" fill="#840000"/>
<path fill-rule="evenodd" clip-rule="evenodd" d="M189.259 112.015H192.038V120.101H189.259V112.015Z" fill="#840000"/>
<path fill-rule="evenodd" clip-rule="evenodd" d="M193.306 112.015H196.085V120.101H193.306V112.015Z" fill="#840000"/>
<path fill-rule="evenodd" clip-rule="evenodd" d="M57.9412 304.161H64.5111V307.699H57.9412V304.161Z" fill="#840000"/>
<path fill-rule="evenodd" clip-rule="evenodd" d="M57.9412 294.559H64.5111V298.097H57.9412V294.559Z" fill="#840000"/>
<path fill-rule="evenodd" clip-rule="evenodd" d="M113.954 292.487H109.911V287.939H113.954V292.487Z" fill="#840000"/>
<path fill-rule="evenodd" clip-rule="evenodd" d="M118.753 303.1H114.71V298.552H118.753V303.1Z" fill="#840000"/>
<path fill-rule="evenodd" clip-rule="evenodd" d="M109.154 303.1H105.111V298.552H109.154V303.1Z" fill="#840000"/>
<path fill-rule="evenodd" clip-rule="evenodd" d="M106.548 171.346H99.9783V167.809H106.548V171.346Z" fill="#840000"/>
<path fill-rule="evenodd" clip-rule="evenodd" d="M106.548 180.949H99.9783V177.411H106.548V180.949Z" fill="#840000"/>
<path fill-rule="evenodd" clip-rule="evenodd" d="M139.048 86.1162H132.478V82.5785H139.048V86.1162Z" fill="#840000"/>
<path fill-rule="evenodd" clip-rule="evenodd" d="M139.048 95.7185H132.478V92.1809H139.048V95.7185Z" fill="#840000"/>
<path fill-rule="evenodd" clip-rule="evenodd" d="M201.642 220.13V226.7H198.106V220.13H201.642Z" fill="#840000"/>
<path fill-rule="evenodd" clip-rule="evenodd" d="M211.243 220.13V226.7H207.705V220.13H211.243Z" fill="#840000"/>
<path fill-rule="evenodd" clip-rule="evenodd" d="M159.307 177.893H152.737V174.356H159.307V177.893Z" fill="#840000"/>
<path fill-rule="evenodd" clip-rule="evenodd" d="M159.307 187.496H152.737V183.958H159.307V187.496Z" fill="#840000"/>
<path fill-rule="evenodd" clip-rule="evenodd" d="M77.1397 237.971V234.686H82.4967V237.971H77.1397Z" fill="#840000"/>
<path fill-rule="evenodd" clip-rule="evenodd" d="M77.1397 247.573V244.288H82.4967V247.573H77.1397Z" fill="#840000"/>
<path fill-rule="evenodd" clip-rule="evenodd" d="M66.0227 247.573V244.288H71.3797V247.573H66.0227Z" fill="#840000"/>
<path fill-rule="evenodd" clip-rule="evenodd" d="M66.0227 242.772V239.487H71.3797V242.772H66.0227Z" fill="#840000"/>
<path fill-rule="evenodd" clip-rule="evenodd" d="M66.0227 237.971V234.686H71.3797V237.971H66.0227Z" fill="#840000"/>
<path fill-rule="evenodd" clip-rule="evenodd" d="M177.408 178.791H170.838V175.254H177.408V178.791Z" fill="#840000"/>
<path fill-rule="evenodd" clip-rule="evenodd" d="M177.408 188.394H170.838V184.856H177.408V188.394Z" fill="#840000"/>
<path fill-rule="evenodd" clip-rule="evenodd" d="M82.2914 88.4132H76.2268V82.3487H82.2914V88.4132Z" fill="#840000"/>
<path fill-rule="evenodd" clip-rule="evenodd" d="M82.2914 99.5317H76.2268V93.4671H82.2914V99.5317Z" fill="#840000"/>
<path fill-rule="evenodd" clip-rule="evenodd" d="M83.0284 189.598H79.7433V184.24H83.0284V189.598Z" fill="#840000"/>
<path fill-rule="evenodd" clip-rule="evenodd" d="M92.6277 189.598H89.3427V184.24H92.6277V189.598Z" fill="#840000"/>
<path fill-rule="evenodd" clip-rule="evenodd" d="M92.6277 200.716H89.3427V195.359H92.6277V200.716Z" fill="#840000"/>
<path fill-rule="evenodd" clip-rule="evenodd" d="M87.8279 200.716H84.543V195.359H87.8279V200.716Z" fill="#840000"/>
<path fill-rule="evenodd" clip-rule="evenodd" d="M83.0284 200.716H79.7433V195.359H83.0284V200.716Z" fill="#840000"/>
<path fill-rule="evenodd" clip-rule="evenodd" d="M72.4956 207.676V213.993H67.4418V207.676H72.4956Z" fill="#840000"/>
<path fill-rule="evenodd" clip-rule="evenodd" d="M82.6008 207.676V213.993H77.547V207.676H82.6008Z" fill="#840000"/>
<path fill-rule="evenodd" clip-rule="evenodd" d="M129.788 124.863V118.798H136.863V124.863H129.788Z" fill="#840000"/>
<path fill-rule="evenodd" clip-rule="evenodd" d="M140.905 124.863V118.798H147.98V124.863H140.905Z" fill="#840000"/>
<path fill-rule="evenodd" clip-rule="evenodd" d="M140.905 132.949V126.884H147.98V132.949H140.905Z" fill="#840000"/>
<path fill-rule="evenodd" clip-rule="evenodd" d="M129.788 132.949V126.884H136.863V132.949H129.788Z" fill="#840000"/>
<path fill-rule="evenodd" clip-rule="evenodd" d="M73.0154 218.333V224.903H69.4777V218.333H73.0154Z" fill="#840000"/>
<path fill-rule="evenodd" clip-rule="evenodd" d="M82.6147 218.333V224.903H79.0771V218.333H82.6147Z" fill="#840000"/>
<path fill-rule="evenodd" clip-rule="evenodd" d="M162.904 80.759H156.587V75.7052H162.904V80.759Z" fill="#840000"/>
<path fill-rule="evenodd" clip-rule="evenodd" d="M162.904 90.8665H156.587V85.8127H162.904V90.8665Z" fill="#840000"/>
<path fill-rule="evenodd" clip-rule="evenodd" d="M83.1639 130.934H79.8789V125.577H83.1639V130.934Z" fill="#840000"/>
<path fill-rule="evenodd" clip-rule="evenodd" d="M92.7633 130.934H89.4782V125.577H92.7633V130.934Z" fill="#840000"/>
<path fill-rule="evenodd" clip-rule="evenodd" d="M92.7633 142.052H89.4782V136.695H92.7633V142.052Z" fill="#840000"/>
<path fill-rule="evenodd" clip-rule="evenodd" d="M87.9635 142.052H84.6786V136.695H87.9635V142.052Z" fill="#840000"/>
<path fill-rule="evenodd" clip-rule="evenodd" d="M83.1639 142.052H79.8789V136.695H83.1639V142.052Z" fill="#840000"/>
<path fill-rule="evenodd" clip-rule="evenodd" d="M40.9635 304.161H47.5335V307.699H40.9635V304.161Z" fill="#840000"/>
<path fill-rule="evenodd" clip-rule="evenodd" d="M40.9635 294.559H47.5335V298.097H40.9635V294.559Z" fill="#840000"/>
<path fill-rule="evenodd" clip-rule="evenodd" d="M106.289 189.317H99.7192V185.781H106.289V189.317Z" fill="#840000"/>
<path fill-rule="evenodd" clip-rule="evenodd" d="M106.289 198.92H99.7192V195.383H106.289V198.92Z" fill="#840000"/>
<path fill-rule="evenodd" clip-rule="evenodd" d="M109.892 310.497H103.322V306.959H109.892V310.497Z" fill="#840000"/>
<path fill-rule="evenodd" clip-rule="evenodd" d="M109.892 320.099H103.322V316.561H109.892V320.099Z" fill="#840000"/>
<path fill-rule="evenodd" clip-rule="evenodd" d="M191.372 235.81H188.087V230.452H191.372V235.81Z" fill="#840000"/>
<path fill-rule="evenodd" clip-rule="evenodd" d="M200.971 235.81H197.686V230.452H200.971V235.81Z" fill="#840000"/>
<path fill-rule="evenodd" clip-rule="evenodd" d="M200.971 246.928H197.686V241.572H200.971V246.928Z" fill="#840000"/>
<path fill-rule="evenodd" clip-rule="evenodd" d="M196.172 246.928H192.887V241.572H196.172V246.928Z" fill="#840000"/>
<path fill-rule="evenodd" clip-rule="evenodd" d="M191.372 246.928H188.087V241.572H191.372V246.928Z" fill="#840000"/>
<path fill-rule="evenodd" clip-rule="evenodd" d="M206.915 259.694H213.485V263.232H206.915V259.694Z" fill="#840000"/>
<path fill-rule="evenodd" clip-rule="evenodd" d="M206.915 250.092H213.485V253.63H206.915V250.092Z" fill="#840000"/>
<path fill-rule="evenodd" clip-rule="evenodd" d="M149.937 246.982V240.412H153.474V246.982H149.937Z" fill="#840000"/>
<path fill-rule="evenodd" clip-rule="evenodd" d="M140.337 246.982V240.412H143.874V246.982H140.337Z" fill="#840000"/>
<path fill-rule="evenodd" clip-rule="evenodd" d="M97.7079 162.518V156.201H102.762V162.518H97.7079Z" fill="#840000"/>
<path fill-rule="evenodd" clip-rule="evenodd" d="M87.6027 162.518V156.201H92.6565V162.518H87.6027Z" fill="#840000"/>
<path fill-rule="evenodd" clip-rule="evenodd" d="M187.36 171.438H181.042V166.384H187.36V171.438Z" fill="#840000"/>
<path fill-rule="evenodd" clip-rule="evenodd" d="M187.36 181.546H181.042V176.492H187.36V181.546Z" fill="#840000"/>
<path fill-rule="evenodd" clip-rule="evenodd" d="M58.2002 323.872H64.2647V329.938H58.2002V323.872Z" fill="#840000"/>
<path fill-rule="evenodd" clip-rule="evenodd" d="M58.2002 312.755H64.2647V318.819H58.2002V312.755Z" fill="#840000"/>
<path fill-rule="evenodd" clip-rule="evenodd" d="M54.5298 218.586V224.65H48.4652V218.586H54.5298Z" fill="#840000"/>
<path fill-rule="evenodd" clip-rule="evenodd" d="M65.6467 218.586V224.65H59.5821V218.586H65.6467Z" fill="#840000"/>
<path fill-rule="evenodd" clip-rule="evenodd" d="M97.9632 92.0156H93.9202V87.4672H97.9632V92.0156Z" fill="#840000"/>
<path fill-rule="evenodd" clip-rule="evenodd" d="M102.763 102.629H98.7199V98.0802H102.763V102.629Z" fill="#840000"/>
<path fill-rule="evenodd" clip-rule="evenodd" d="M93.1636 102.629H89.1205V98.0802H93.1636V102.629Z" fill="#840000"/>
<path fill-rule="evenodd" clip-rule="evenodd" d="M136.186 108.723V115.041H131.133V108.723H136.186Z" fill="#840000"/>
<path fill-rule="evenodd" clip-rule="evenodd" d="M146.292 108.723V115.041H141.238V108.723H146.292Z" fill="#840000"/>
<path fill-rule="evenodd" clip-rule="evenodd" d="M126.279 230.397V236.714H121.225V230.397H126.279Z" fill="#840000"/>
<path fill-rule="evenodd" clip-rule="evenodd" d="M136.384 230.397V236.714H131.33V230.397H136.384Z" fill="#840000"/>
<path fill-rule="evenodd" clip-rule="evenodd" d="M53.9189 155.477V151.433H58.4674V155.477H53.9189Z" fill="#840000"/>
<path fill-rule="evenodd" clip-rule="evenodd" d="M43.3078 160.278V156.234H47.8563V160.278H43.3078Z" fill="#840000"/>
<path fill-rule="evenodd" clip-rule="evenodd" d="M43.3078 150.675V146.632H47.8563V150.675H43.3078Z" fill="#840000"/>
<path fill-rule="evenodd" clip-rule="evenodd" d="M103.445 330.039V323.975H109.51V330.039H103.445Z" fill="#840000"/>
<path fill-rule="evenodd" clip-rule="evenodd" d="M92.3283 330.039V323.975H98.3929V330.039H92.3283Z" fill="#840000"/>
<path fill-rule="evenodd" clip-rule="evenodd" d="M66.3403 161.595V168.165H62.8026V161.595H66.3403Z" fill="#840000"/>
<path fill-rule="evenodd" clip-rule="evenodd" d="M75.9396 161.595V168.165H72.402V161.595H75.9396Z" fill="#840000"/>
<path fill-rule="evenodd" clip-rule="evenodd" d="M292.335 324.969H298.904V328.507H292.335V324.969Z" fill="#840000"/>
<path fill-rule="evenodd" clip-rule="evenodd" d="M292.335 315.367H298.904V318.905H292.335V315.367Z" fill="#840000"/>
<path fill-rule="evenodd" clip-rule="evenodd" d="M162.233 56.5902V63.1603H158.697V56.5902H162.233Z" fill="#840000"/>
<path fill-rule="evenodd" clip-rule="evenodd" d="M171.834 56.5902V63.1603H168.296V56.5902H171.834Z" fill="#840000"/>
<path fill-rule="evenodd" clip-rule="evenodd" d="M193.812 75.1748V72.1425H201.645V75.1748H193.812Z" fill="#840000"/>
<path fill-rule="evenodd" clip-rule="evenodd" d="M193.812 81.5931V78.5608H201.645V81.5931H193.812Z" fill="#840000"/>
<path fill-rule="evenodd" clip-rule="evenodd" d="M193.812 88.0114V84.9791H201.645V88.0114H193.812Z" fill="#840000"/>
<path fill-rule="evenodd" clip-rule="evenodd" d="M193.812 94.4297V91.3974H201.645V94.4297H193.812Z" fill="#840000"/>
<path fill-rule="evenodd" clip-rule="evenodd" d="M166.519 94.4297V91.3974H174.352V94.4297H166.519Z" fill="#840000"/>
<path fill-rule="evenodd" clip-rule="evenodd" d="M166.519 88.0114V84.9791H174.352V88.0114H166.519Z" fill="#840000"/>
<path fill-rule="evenodd" clip-rule="evenodd" d="M166.519 81.5931V78.5608H174.352V81.5931H166.519Z" fill="#840000"/>
<path fill-rule="evenodd" clip-rule="evenodd" d="M166.519 75.1748V72.1425H174.352V75.1748H166.519Z" fill="#840000"/>
<path fill-rule="evenodd" clip-rule="evenodd" d="M87.5287 176.769H94.0988V180.307H87.5287V176.769Z" fill="#840000"/>
<path fill-rule="evenodd" clip-rule="evenodd" d="M87.5288 167.167H94.0988V170.704H87.5288V167.167Z" fill="#840000"/>
<path fill-rule="evenodd" clip-rule="evenodd" d="M129.146 204.328H122.829V199.275H129.146V204.328Z" fill="#840000"/>
<path fill-rule="evenodd" clip-rule="evenodd" d="M129.146 214.436H122.829V209.382H129.146V214.436Z" fill="#840000"/>
<path fill-rule="evenodd" clip-rule="evenodd" d="M94.2223 212.938H87.6522V209.4H94.2223V212.938Z" fill="#840000"/>
<path fill-rule="evenodd" clip-rule="evenodd" d="M94.2223 222.54H87.6522V219.002H94.2223V222.54Z" fill="#840000"/>
<path fill-rule="evenodd" clip-rule="evenodd" d="M137.465 214.758H134.18V209.4H137.465V214.758Z" fill="#840000"/>
<path fill-rule="evenodd" clip-rule="evenodd" d="M147.065 214.758H143.78V209.4H147.065V214.758Z" fill="#840000"/>
<path fill-rule="evenodd" clip-rule="evenodd" d="M147.065 225.876H143.78V220.52H147.065V225.876Z" fill="#840000"/>
<path fill-rule="evenodd" clip-rule="evenodd" d="M142.265 225.876H138.98V220.52H142.265V225.876Z" fill="#840000"/>
<path fill-rule="evenodd" clip-rule="evenodd" d="M137.465 225.876H134.18V220.52H137.465V225.876Z" fill="#840000"/>
<path fill-rule="evenodd" clip-rule="evenodd" d="M206.915 242.365H213.485V245.903H206.915V242.365Z" fill="#840000"/>
<path fill-rule="evenodd" clip-rule="evenodd" d="M206.915 232.763H213.485V236.301H206.915V232.763Z" fill="#840000"/>
<path fill-rule="evenodd" clip-rule="evenodd" d="M137.976 178.775V182.819H133.428V178.775H137.976Z" fill="#840000"/>
<path fill-rule="evenodd" clip-rule="evenodd" d="M148.587 173.975V178.017H144.039V173.975H148.587Z" fill="#840000"/>
<path fill-rule="evenodd" clip-rule="evenodd" d="M148.587 183.577V187.62H144.039V183.577H148.587Z" fill="#840000"/>
<path fill-rule="evenodd" clip-rule="evenodd" d="M92.02 316.561H98.5901V320.099H92.02V316.561Z" fill="#840000"/>
<path fill-rule="evenodd" clip-rule="evenodd" d="M92.02 306.959H98.5901V310.497H92.02V306.959Z" fill="#840000"/>
<path fill-rule="evenodd" clip-rule="evenodd" d="M98.9789 117.074V110.504H102.517V117.074H98.9789Z" fill="#840000"/>
<path fill-rule="evenodd" clip-rule="evenodd" d="M89.3795 117.074V110.504H92.9172V117.074H89.3795Z" fill="#840000"/>
<path fill-rule="evenodd" clip-rule="evenodd" d="M82.55 107.163H75.9799V103.625H82.55V107.163Z" fill="#840000"/>
<path fill-rule="evenodd" clip-rule="evenodd" d="M82.55 116.765H75.9799V113.228H82.55V116.765Z" fill="#840000"/>
<path fill-rule="evenodd" clip-rule="evenodd" d="M171.223 235.81H167.938V230.452H171.223V235.81Z" fill="#840000"/>
<path fill-rule="evenodd" clip-rule="evenodd" d="M180.823 235.81H177.538V230.452H180.823V235.81Z" fill="#840000"/>
<path fill-rule="evenodd" clip-rule="evenodd" d="M180.823 246.928H177.538V241.572H180.823V246.928Z" fill="#840000"/>
<path fill-rule="evenodd" clip-rule="evenodd" d="M176.023 246.928H172.738V241.572H176.023V246.928Z" fill="#840000"/>
<path fill-rule="evenodd" clip-rule="evenodd" d="M171.223 246.928H167.938V241.572H171.223V246.928Z" fill="#840000"/>
<path fill-rule="evenodd" clip-rule="evenodd" d="M186.75 197.923V204.493H183.213V197.923H186.75Z" fill="#840000"/>
<path fill-rule="evenodd" clip-rule="evenodd" d="M196.351 197.923V204.493H192.813V197.923H196.351Z" fill="#840000"/>
<path fill-rule="evenodd" clip-rule="evenodd" d="M72.2785 155.944V149.375H75.8161V155.944H72.2785Z" fill="#840000"/>
<path fill-rule="evenodd" clip-rule="evenodd" d="M62.6791 155.944V149.375H66.2168V155.944H62.6791Z" fill="#840000"/>
<path fill-rule="evenodd" clip-rule="evenodd" d="M183.529 99.848V106.165H178.475V99.848H183.529Z" fill="#840000"/>
<path fill-rule="evenodd" clip-rule="evenodd" d="M193.635 99.848V106.165H188.581V99.848H193.635Z" fill="#840000"/>
<path fill-rule="evenodd" clip-rule="evenodd" d="M172.787 216.219H166.47V211.165H172.787V216.219Z" fill="#840000"/>
<path fill-rule="evenodd" clip-rule="evenodd" d="M172.787 226.326H166.47V221.273H172.787V226.326Z" fill="#840000"/>
<path fill-rule="evenodd" clip-rule="evenodd" d="M142.694 92.1454H149.264V95.6831H142.694V92.1454Z" fill="#840000"/>
<path fill-rule="evenodd" clip-rule="evenodd" d="M142.694 82.543H149.264V86.0807H142.694V82.543Z" fill="#840000"/>
<path fill-rule="evenodd" clip-rule="evenodd" d="M193.071 216.347H186.754V211.293H193.071V216.347Z" fill="#840000"/>
<path fill-rule="evenodd" clip-rule="evenodd" d="M193.071 226.455H186.754V221.401H193.071V226.455Z" fill="#840000"/>
<path fill-rule="evenodd" clip-rule="evenodd" d="M32.3266 155.981H38.6438V161.035H32.3266V155.981Z" fill="#840000"/>
<path fill-rule="evenodd" clip-rule="evenodd" d="M32.3266 145.874H38.6438V150.928H32.3266V145.874Z" fill="#840000"/>
<path fill-rule="evenodd" clip-rule="evenodd" d="M206.656 86.784H213.226V90.3216H206.656V86.784Z" fill="#840000"/>
<path fill-rule="evenodd" clip-rule="evenodd" d="M206.656 77.1816H213.226V80.7192H206.656V77.1816Z" fill="#840000"/>
<path fill-rule="evenodd" clip-rule="evenodd" d="M126.811 240.412V246.982H123.273V240.412H126.811Z" fill="#840000"/>
<path fill-rule="evenodd" clip-rule="evenodd" d="M136.41 240.412V246.982H132.872V240.412H136.41Z" fill="#840000"/>
<path fill-rule="evenodd" clip-rule="evenodd" d="M24.2202 304.161H30.7903V307.699H24.2202V304.161Z" fill="#840000"/>
<path fill-rule="evenodd" clip-rule="evenodd" d="M24.2202 294.559H30.7903V298.097H24.2202V294.559Z" fill="#840000"/>
<path fill-rule="evenodd" clip-rule="evenodd" d="M24.4671 323.872H30.5317V329.938H24.4671V323.872Z" fill="#840000"/>
<path fill-rule="evenodd" clip-rule="evenodd" d="M24.4671 312.755H30.5317V318.819H24.4671V312.755Z" fill="#840000"/>
<path fill-rule="evenodd" clip-rule="evenodd" d="M60.5722 131.191H57.2872V125.834H60.5722V131.191Z" fill="#840000"/>
<path fill-rule="evenodd" clip-rule="evenodd" d="M70.1716 131.191H66.8865V125.834H70.1716V131.191Z" fill="#840000"/>
<path fill-rule="evenodd" clip-rule="evenodd" d="M70.1716 142.309H66.8865V136.952H70.1716V142.309Z" fill="#840000"/>
<path fill-rule="evenodd" clip-rule="evenodd" d="M65.3718 142.309H62.0869V136.952H65.3718V142.309Z" fill="#840000"/>
<path fill-rule="evenodd" clip-rule="evenodd" d="M60.5722 142.309H57.2872V136.952H60.5722V142.309Z" fill="#840000"/>
<path fill-rule="evenodd" clip-rule="evenodd" d="M126.444 122.174H120.127V117.12H126.444V122.174Z" fill="#840000"/>
<path fill-rule="evenodd" clip-rule="evenodd" d="M126.444 132.281H120.127V127.227H126.444V132.281Z" fill="#840000"/>
<path fill-rule="evenodd" clip-rule="evenodd" d="M108.714 279.848H115.284V283.386H108.714V279.848Z" fill="#840000"/>
<path fill-rule="evenodd" clip-rule="evenodd" d="M108.714 270.246H115.284V273.784H108.714V270.246Z" fill="#840000"/>
<path fill-rule="evenodd" clip-rule="evenodd" d="M147.546 201.057L147.654 201.073L147.759 201.099L147.861 201.136L147.959 201.182L148.052 201.238L148.139 201.303L148.22 201.375L148.292 201.456L148.357 201.543L148.413 201.635L148.459 201.734L148.496 201.836L148.522 201.941L148.538 202.049L148.544 202.157V204.368L148.538 204.476L148.522 204.584L148.496 204.689L148.459 204.791L148.413 204.89L148.357 204.982L148.292 205.069L148.22 205.15L148.139 205.222L148.052 205.288L147.959 205.343L147.861 205.389L147.759 205.426L147.654 205.452L147.546 205.469L147.438 205.474H144.848L144.739 205.469L144.632 205.452L144.527 205.426L144.424 205.389L144.327 205.343L144.233 205.288L144.146 205.222L144.066 205.15L143.993 205.069L143.929 204.982L143.872 204.89L143.826 204.791L143.79 204.689L143.763 204.584L143.748 204.476L143.743 204.368V202.157L143.748 202.049L143.763 201.941L143.79 201.836L143.826 201.734L143.872 201.635L143.929 201.543L143.993 201.456L144.066 201.375L144.146 201.303L144.233 201.238L144.327 201.182L144.424 201.136L144.527 201.099L144.632 201.073L144.739 201.057L144.848 201.051H147.438L147.546 201.057Z" fill="#840000"/>
<path fill-rule="evenodd" clip-rule="evenodd" d="M147.546 193.096L147.654 193.113L147.759 193.139L147.861 193.176L147.959 193.222L148.052 193.277L148.139 193.343L148.22 193.416L148.292 193.496L148.357 193.583L148.413 193.677L148.459 193.774L148.496 193.875L148.522 193.981L148.538 194.089L148.544 194.196V196.408L148.538 196.516L148.522 196.624L148.496 196.729L148.459 196.831L148.413 196.929L148.357 197.022L148.292 197.109L148.22 197.19L148.139 197.263L148.052 197.327L147.959 197.382L147.861 197.43L147.759 197.466L147.654 197.493L147.546 197.508L147.438 197.513H144.848L144.739 197.508L144.632 197.493L144.527 197.466L144.424 197.43L144.327 197.382L144.233 197.327L144.146 197.263L144.066 197.19L143.993 197.109L143.929 197.022L143.872 196.929L143.826 196.831L143.79 196.729L143.763 196.624L143.748 196.516L143.743 196.408V194.196L143.748 194.089L143.763 193.981L143.79 193.875L143.826 193.774L143.872 193.677L143.929 193.583L143.993 193.496L144.066 193.416L144.146 193.343L144.233 193.277L144.327 193.222L144.424 193.176L144.527 193.139L144.632 193.113L144.739 193.096L144.848 193.091H147.438L147.546 193.096Z" fill="#840000"/>
<path fill-rule="evenodd" clip-rule="evenodd" d="M168.908 197.923V204.493H165.372V197.923H168.908Z" fill="#840000"/>
<path fill-rule="evenodd" clip-rule="evenodd" d="M178.509 197.923V204.493H174.971V197.923H178.509Z" fill="#840000"/>
<path fill-rule="evenodd" clip-rule="evenodd" d="M150.467 236.714V230.397H155.521V236.714H150.467Z" fill="#840000"/>
<path fill-rule="evenodd" clip-rule="evenodd" d="M140.362 236.714V230.397H145.416V236.714H140.362Z" fill="#840000"/>
<path fill-rule="evenodd" clip-rule="evenodd" d="M41.2225 323.872H47.2871V329.938H41.2225V323.872Z" fill="#840000"/>
<path fill-rule="evenodd" clip-rule="evenodd" d="M41.2225 312.755H47.2871V318.819H41.2225V312.755Z" fill="#840000"/>
<path fill-rule="evenodd" clip-rule="evenodd" d="M64.0313 184.057V190.374H58.9775V184.057H64.0313Z" fill="#840000"/>
<path fill-rule="evenodd" clip-rule="evenodd" d="M74.1365 184.057V190.374H69.0827V184.057H74.1365Z" fill="#840000"/>
<path fill-rule="evenodd" clip-rule="evenodd" d="M292.738 113.968H276.566V108.914H292.738V113.968Z" fill="#840000"/>
<path fill-rule="evenodd" clip-rule="evenodd" d="M292.738 145.301H276.566V140.248H292.738V145.301Z" fill="#840000"/>
<path fill-rule="evenodd" clip-rule="evenodd" d="M341.719 115.635H335.149V112.098H341.719V115.635Z" fill="#840000"/>
<path fill-rule="evenodd" clip-rule="evenodd" d="M341.719 125.238H335.149V121.7H341.719V125.238Z" fill="#840000"/>
<path fill-rule="evenodd" clip-rule="evenodd" d="M261.846 137.241H267.91V143.305H261.846V137.241Z" fill="#840000"/>
<path fill-rule="evenodd" clip-rule="evenodd" d="M261.846 126.122H267.91V132.187H261.846V126.122Z" fill="#840000"/>
<path fill-rule="evenodd" clip-rule="evenodd" d="M320.383 123.188V126.473H315.025V123.188H320.383Z" fill="#840000"/>
<path fill-rule="evenodd" clip-rule="evenodd" d="M320.383 127.989V131.275H315.025V127.989H320.383Z" fill="#840000"/>
<path fill-rule="evenodd" clip-rule="evenodd" d="M320.383 118.387V121.672H315.025V118.387H320.383Z" fill="#840000"/>
<path fill-rule="evenodd" clip-rule="evenodd" d="M331.499 118.387V121.672H326.142V118.387H331.499Z" fill="#840000"/>
<path fill-rule="evenodd" clip-rule="evenodd" d="M331.499 123.188V126.473H326.142V123.188H331.499Z" fill="#840000"/>
<path fill-rule="evenodd" clip-rule="evenodd" d="M331.499 127.989V131.275H326.142V127.989H331.499Z" fill="#840000"/>
<path fill-rule="evenodd" clip-rule="evenodd" d="M301.736 164.224H308.053V169.278H301.736V164.224Z" fill="#840000"/>
<path fill-rule="evenodd" clip-rule="evenodd" d="M301.736 154.116H308.053V159.17H301.736V154.116Z" fill="#840000"/>
<path fill-rule="evenodd" clip-rule="evenodd" d="M325.71 144.638V138.321H330.764V144.638H325.71Z" fill="#840000"/>
<path fill-rule="evenodd" clip-rule="evenodd" d="M315.605 144.638V138.321H320.659V144.638H315.605Z" fill="#840000"/>
<path fill-rule="evenodd" clip-rule="evenodd" d="M332.299 53.0767V47.0121H338.364V53.0767H332.299Z" fill="#840000"/>
<path fill-rule="evenodd" clip-rule="evenodd" d="M321.182 53.0767V47.0121H327.246V53.0767H321.182Z" fill="#840000"/>
<path fill-rule="evenodd" clip-rule="evenodd" d="M312.718 166.63H320.804V171.684H312.718V166.63Z" fill="#840000"/>
<path fill-rule="evenodd" clip-rule="evenodd" d="M312.718 151.468H320.804V156.522H312.718V151.468Z" fill="#840000"/>
<path fill-rule="evenodd" clip-rule="evenodd" d="M341.645 135.276H335.075V131.738H341.645V135.276Z" fill="#840000"/>
<path fill-rule="evenodd" clip-rule="evenodd" d="M341.645 144.878H335.075V141.34H341.645V144.878Z" fill="#840000"/>
<path fill-rule="evenodd" clip-rule="evenodd" d="M261.599 118.542H268.169V122.079H261.599V118.542Z" fill="#840000"/>
<path fill-rule="evenodd" clip-rule="evenodd" d="M261.599 108.939H268.169V112.477H261.599V108.939Z" fill="#840000"/>
<path fill-rule="evenodd" clip-rule="evenodd" d="M275.826 151.422H293.515V160.418H275.826V151.422Z" fill="#840000"/>
<path fill-rule="evenodd" clip-rule="evenodd" d="M275.826 178.107H293.515V187.103H275.826V178.107Z" fill="#840000"/>
<path fill-rule="evenodd" clip-rule="evenodd" d="M324.846 103.098V96.7804H329.9V103.098H324.846Z" fill="#840000"/>
<path fill-rule="evenodd" clip-rule="evenodd" d="M314.741 103.098V96.7804H319.795V103.098H314.741Z" fill="#840000"/>
<path fill-rule="evenodd" clip-rule="evenodd" d="M319.816 72.006V82.9172H310.83V72.006H319.816Z" fill="#840000"/>
<path fill-rule="evenodd" clip-rule="evenodd" d="M340.359 72.006V82.9172H331.373V72.006H340.359Z" fill="#840000"/>
<path fill-rule="evenodd" clip-rule="evenodd" d="M310.608 96.284H297.973V91.7355H310.608V96.284Z" fill="#840000"/>
<path fill-rule="evenodd" clip-rule="evenodd" d="M310.608 110.94H297.973V106.392H310.608V110.94Z" fill="#840000"/>
<path fill-rule="evenodd" clip-rule="evenodd" d="M324.55 110.961V107.171H328.592V110.961H324.55Z" fill="#840000"/>
<path fill-rule="evenodd" clip-rule="evenodd" d="M316.974 110.961V107.171H321.018V110.961H316.974Z" fill="#840000"/>
<path fill-rule="evenodd" clip-rule="evenodd" d="M299.503 144.03H309.611V150.095H299.503V144.03Z" fill="#840000"/>
<path fill-rule="evenodd" clip-rule="evenodd" d="M299.503 127.858H309.611V133.923H299.503V127.858Z" fill="#840000"/>
<path fill-rule="evenodd" clip-rule="evenodd" d="M324.097 123.015L323.47 123.641L322.971 123.142V118.506H324.097V123.015Z" fill="#840000"/>
<path fill-rule="evenodd" clip-rule="evenodd" d="M295.8 132.81V136.694L295.807 136.769L295.829 136.84L295.865 136.907L295.913 136.966L297.934 138.988L297.993 139.036L298.059 139.071L298.132 139.093L298.207 139.1H310.05L311.594 140.644V147.559L311.6 147.635L311.622 147.707L311.658 147.773L311.706 147.831L312.97 149.096L313.028 149.143L313.095 149.179L313.166 149.201L313.242 149.207H332.194L332.269 149.201L332.341 149.179L332.407 149.143L332.466 149.096L333.477 148.084L333.524 148.026L333.56 147.96L333.582 147.888L333.59 147.812V140.264L335.511 138.342H342.9L344.949 140.391V157.129L342.521 159.556H298.334L298.258 159.564L298.186 159.586L298.119 159.621L298.062 159.669L294.384 163.347H276.103V151.603L276.095 151.527L276.074 151.455L276.038 151.388L275.85 151.107V133.315L279.541 129.625H292.615L295.8 132.81Z" fill="#840000"/>
<path fill-rule="evenodd" clip-rule="evenodd" d="M320.686 211.331L310.551 221.466H261.09L251.84 212.215V180.569L259.574 172.835H289.737L289.812 172.827L289.885 172.805L289.951 172.769L290.01 172.722L300.763 161.969H320.686V211.331Z" fill="#840000"/>
<path fill-rule="evenodd" clip-rule="evenodd" d="M323.717 122.537H323.091L323.016 122.544L322.971 122.558V118.912L323.378 118.506H323.717V122.537Z" fill="#840000"/>
<path fill-rule="evenodd" clip-rule="evenodd" d="M331.419 146.263L330.761 146.921H325.521L324.735 146.137V128.641L325.268 128.108H331.419V146.263Z" fill="#840000"/>
<path fill-rule="evenodd" clip-rule="evenodd" d="M320.041 145.78H314.757L313.87 144.893V137.326L313.857 137.2L313.822 137.079L313.762 136.969L313.682 136.871L312.04 135.23L311.942 135.149L311.832 135.09L311.711 135.054L311.585 135.041H300.102L299.466 134.407V128.17L299.545 128.112H320.041V145.78Z" fill="#840000"/>
<path fill-rule="evenodd" clip-rule="evenodd" d="M331.424 126.327H323.756L322.971 125.542V123.307H331.424V126.327Z" fill="#840000"/>
<path fill-rule="evenodd" clip-rule="evenodd" d="M359.472 63.1937V111.391L354.264 116.599H325.365L325.289 116.606L325.217 116.628L325.15 116.664L325.091 116.712L322.969 118.834V90.9566L322.963 90.8815L322.94 90.8092L322.905 90.7426L322.856 90.6843L320.353 88.1803V83.9435L320.467 83.8821L320.643 83.7379L320.788 83.5619L320.895 83.3612L320.962 83.1434L320.983 82.917V72.0058L320.962 71.7793L320.895 71.5615L320.788 71.3608L320.643 71.1848L320.467 71.0406L320.267 70.9332L320.049 70.8671L319.823 70.8449H318.411V68.4713L318.425 68.3199L318.366 67.7161L318.312 67.5399L318.19 67.1354L317.904 66.6001L317.519 66.131L317.401 66.0345L316.049 64.6819L321.101 59.629H355.907L359.472 63.1937Z" fill="#840000"/>
<path d="M338.119 319.249C340.073 319.249 341.657 317.665 341.657 315.711C341.657 313.758 340.073 312.174 338.119 312.174C336.165 312.174 334.581 313.758 334.581 315.711C334.581 317.665 336.165 319.249 338.119 319.249Z" stroke="#848400" stroke-width="0.3" stroke-linecap="round" stroke-linejoin="round"/>
<path d="M338.119 332.086C340.073 332.086 341.657 330.502 341.657 328.548C341.657 326.594 340.073 325.01 338.119 325.01C336.165 325.01 334.581 326.594 334.581 328.548C334.581 330.502 336.165 332.086 338.119 332.086Z" stroke="#848400" stroke-width="0.3" stroke-linecap="round" stroke-linejoin="round"/>
<path d="M325.275 319.249C327.229 319.249 328.812 317.665 328.812 315.711C328.812 313.758 327.229 312.174 325.275 312.174C323.321 312.174 321.737 313.758 321.737 315.711C321.737 317.665 323.321 319.249 325.275 319.249Z" stroke="#848400" stroke-width="0.3" stroke-linecap="round" stroke-linejoin="round"/>
<path d="M325.275 332.086C327.229 332.086 328.812 330.502 328.812 328.548C328.812 326.594 327.229 325.01 325.275 325.01C323.321 325.01 321.737 326.594 321.737 328.548C321.737 330.502 323.321 332.086 325.275 332.086Z" stroke="#848400" stroke-width="0.3" stroke-linecap="round" stroke-linejoin="round"/>
<path d="M312.443 319.249C314.397 319.249 315.98 317.665 315.98 315.711C315.98 313.758 314.397 312.174 312.443 312.174C310.489 312.174 308.905 313.758 308.905 315.711C308.905 317.665 310.489 319.249 312.443 319.249Z" stroke="#848400" stroke-width="0.3" stroke-linecap="round" stroke-linejoin="round"/>
<path fill-rule="evenodd" clip-rule="evenodd" d="M315.981 332.086H308.905V325.01H315.981V332.086Z" stroke="#848400" stroke-width="0.3" stroke-linecap="round" stroke-linejoin="round"/>
<path d="M338.111 318.278C339.529 318.278 340.678 317.129 340.678 315.711C340.678 314.293 339.529 313.144 338.111 313.144C336.693 313.144 335.544 314.293 335.544 315.711C335.544 317.129 336.693 318.278 338.111 318.278Z" stroke="#848400" stroke-width="0.3" stroke-linecap="round" stroke-linejoin="round"/>
<path d="M338.111 331.115C339.529 331.115 340.678 329.966 340.678 328.548C340.678 327.13 339.529 325.981 338.111 325.981C336.693 325.981 335.544 327.13 335.544 328.548C335.544 329.966 336.693 331.115 338.111 331.115Z" stroke="#848400" stroke-width="0.3" stroke-linecap="round" stroke-linejoin="round"/>
<path d="M325.279 318.278C326.697 318.278 327.846 317.129 327.846 315.711C327.846 314.293 326.697 313.144 325.279 313.144C323.861 313.144 322.712 314.293 322.712 315.711C322.712 317.129 323.861 318.278 325.279 318.278Z" stroke="#848400" stroke-width="0.3" stroke-linecap="round" stroke-linejoin="round"/>
<path d="M325.279 331.115C326.697 331.115 327.846 329.966 327.846 328.548C327.846 327.13 326.697 325.981 325.279 325.981C323.861 325.981 322.712 327.13 322.712 328.548C322.712 329.966 323.861 331.115 325.279 331.115Z" stroke="#848400" stroke-width="0.3" stroke-linecap="round" stroke-linejoin="round"/>
<path d="M312.435 318.278C313.853 318.278 315.002 317.129 315.002 315.711C315.002 314.293 313.853 313.144 312.435 313.144C311.017 313.144 309.868 314.293 309.868 315.711C309.868 317.129 311.017 318.278 312.435 318.278Z" stroke="#848400" stroke-width="0.3" stroke-linecap="round" stroke-linejoin="round"/>
<path d="M312.435 331.115C313.853 331.115 315.002 329.966 315.002 328.548C315.002 327.13 313.853 325.981 312.435 325.981C311.017 325.981 309.868 327.13 309.868 328.548C309.868 329.966 311.017 331.115 312.435 331.115Z" stroke="#848400" stroke-width="0.3" stroke-linecap="round" stroke-linejoin="round"/>
<path d="M120.537 49.2193C122.351 49.2193 123.822 47.7486 123.822 45.9344C123.822 44.1201 122.351 42.6494 120.537 42.6494C118.723 42.6494 117.252 44.1201 117.252 45.9344C117.252 47.7486 118.723 49.2193 120.537 49.2193Z" stroke="#848400" stroke-width="0.3" stroke-linecap="round" stroke-linejoin="round"/>
<path d="M126.953 36.3827C128.767 36.3827 130.238 34.912 130.238 33.0978C130.238 31.2835 128.767 29.8128 126.953 29.8128C125.139 29.8128 123.668 31.2835 123.668 33.0978C123.668 34.912 125.139 36.3827 126.953 36.3827Z" stroke="#848400" stroke-width="0.3" stroke-linecap="round" stroke-linejoin="round"/>
<path d="M133.369 49.2193C135.183 49.2193 136.654 47.7486 136.654 45.9344C136.654 44.1201 135.183 42.6494 133.369 42.6494C131.555 42.6494 130.084 44.1201 130.084 45.9344C130.084 47.7486 131.555 49.2193 133.369 49.2193Z" stroke="#848400" stroke-width="0.3" stroke-linecap="round" stroke-linejoin="round"/>
<path d="M139.785 36.3827C141.599 36.3827 143.07 34.912 143.07 33.0978C143.07 31.2835 141.599 29.8128 139.785 29.8128C137.971 29.8128 136.5 31.2835 136.5 33.0978C136.5 34.912 137.971 36.3827 139.785 36.3827Z" stroke="#848400" stroke-width="0.3" stroke-linecap="round" stroke-linejoin="round"/>
<path d="M146.201 49.2193C148.015 49.2193 149.486 47.7486 149.486 45.9344C149.486 44.1201 148.015 42.6494 146.201 42.6494C144.387 42.6494 142.916 44.1201 142.916 45.9344C142.916 47.7486 144.387 49.2193 146.201 49.2193Z" stroke="#848400" stroke-width="0.3" stroke-linecap="round" stroke-linejoin="round"/>
<path d="M152.629 36.3827C154.443 36.3827 155.914 34.912 155.914 33.0978C155.914 31.2835 154.443 29.8128 152.629 29.8128C150.815 29.8128 149.344 31.2835 149.344 33.0978C149.344 34.912 150.815 36.3827 152.629 36.3827Z" stroke="#848400" stroke-width="0.3" stroke-linecap="round" stroke-linejoin="round"/>
<path d="M159.045 49.2193C160.86 49.2193 162.33 47.7486 162.33 45.9344C162.33 44.1201 160.86 42.6494 159.045 42.6494C157.231 42.6494 155.76 44.1201 155.76 45.9344C155.76 47.7486 157.231 49.2193 159.045 49.2193Z" stroke="#848400" stroke-width="0.3" stroke-linecap="round" stroke-linejoin="round"/>
<path d="M165.461 36.3827C167.276 36.3827 168.746 34.912 168.746 33.0978C168.746 31.2835 167.276 29.8128 165.461 29.8128C163.647 29.8128 162.176 31.2835 162.176 33.0978C162.176 34.912 163.647 36.3827 165.461 36.3827Z" stroke="#848400" stroke-width="0.3" stroke-linecap="round" stroke-linejoin="round"/>
<path d="M171.877 49.2193C173.692 49.2193 175.162 47.7486 175.162 45.9344C175.162 44.1201 173.692 42.6494 171.877 42.6494C170.063 42.6494 168.592 44.1201 168.592 45.9344C168.592 47.7486 170.063 49.2193 171.877 49.2193Z" stroke="#848400" stroke-width="0.3" stroke-linecap="round" stroke-linejoin="round"/>
<path d="M178.293 36.3827C180.108 36.3827 181.578 34.912 181.578 33.0978C181.578 31.2835 180.108 29.8128 178.293 29.8128C176.479 29.8128 175.008 31.2835 175.008 33.0978C175.008 34.912 176.479 36.3827 178.293 36.3827Z" stroke="#848400" stroke-width="0.3" stroke-linecap="round" stroke-linejoin="round"/>
<path d="M184.709 49.2193C186.524 49.2193 187.994 47.7486 187.994 45.9344C187.994 44.1201 186.524 42.6494 184.709 42.6494C182.895 42.6494 181.424 44.1201 181.424 45.9344C181.424 47.7486 182.895 49.2193 184.709 49.2193Z" stroke="#848400" stroke-width="0.3" stroke-linecap="round" stroke-linejoin="round"/>
<path d="M191.138 36.3827C192.952 36.3827 194.423 34.912 194.423 33.0978C194.423 31.2835 192.952 29.8128 191.138 29.8128C189.323 29.8128 187.853 31.2835 187.853 33.0978C187.853 34.912 189.323 36.3827 191.138 36.3827Z" stroke="#848400" stroke-width="0.3" stroke-linecap="round" stroke-linejoin="round"/>
<path d="M197.554 49.2193C199.368 49.2193 200.839 47.7486 200.839 45.9344C200.839 44.1201 199.368 42.6494 197.554 42.6494C195.739 42.6494 194.269 44.1201 194.269 45.9344C194.269 47.7486 195.739 49.2193 197.554 49.2193Z" stroke="#848400" stroke-width="0.3" stroke-linecap="round" stroke-linejoin="round"/>
<path d="M210.386 49.2193C212.2 49.2193 213.671 47.7486 213.671 45.9344C213.671 44.1201 212.2 42.6494 210.386 42.6494C208.571 42.6494 207.101 44.1201 207.101 45.9344C207.101 47.7486 208.571 49.2193 210.386 49.2193Z" stroke="#848400" stroke-width="0.3" stroke-linecap="round" stroke-linejoin="round"/>
<path d="M223.23 49.2193C225.044 49.2193 226.515 47.7486 226.515 45.9344C226.515 44.1201 225.044 42.6494 223.23 42.6494C221.416 42.6494 219.945 44.1201 219.945 45.9344C219.945 47.7486 221.416 49.2193 223.23 49.2193Z" stroke="#848400" stroke-width="0.3" stroke-linecap="round" stroke-linejoin="round"/>
<path d="M236.062 49.2193C237.876 49.2193 239.347 47.7486 239.347 45.9344C239.347 44.1201 237.876 42.6494 236.062 42.6494C234.248 42.6494 232.777 44.1201 232.777 45.9344C232.777 47.7486 234.248 49.2193 236.062 49.2193Z" stroke="#848400" stroke-width="0.3" stroke-linecap="round" stroke-linejoin="round"/>
<path d="M203.97 36.3827C205.784 36.3827 207.255 34.912 207.255 33.0978C207.255 31.2835 205.784 29.8128 203.97 29.8128C202.155 29.8128 200.685 31.2835 200.685 33.0978C200.685 34.912 202.155 36.3827 203.97 36.3827Z" stroke="#848400" stroke-width="0.3" stroke-linecap="round" stroke-linejoin="round"/>
<path d="M242.478 36.3827C244.292 36.3827 245.763 34.912 245.763 33.0978C245.763 31.2835 244.292 29.8128 242.478 29.8128C240.664 29.8128 239.193 31.2835 239.193 33.0978C239.193 34.912 240.664 36.3827 242.478 36.3827Z" stroke="#848400" stroke-width="0.3" stroke-linecap="round" stroke-linejoin="round"/>
<path d="M229.646 36.3827C231.46 36.3827 232.931 34.912 232.931 33.0978C232.931 31.2835 231.46 29.8128 229.646 29.8128C227.832 29.8128 226.361 31.2835 226.361 33.0978C226.361 34.912 227.832 36.3827 229.646 36.3827Z" stroke="#848400" stroke-width="0.3" stroke-linecap="round" stroke-linejoin="round"/>
<path d="M216.802 36.3827C218.616 36.3827 220.087 34.912 220.087 33.0978C220.087 31.2835 218.616 29.8128 216.802 29.8128C214.987 29.8128 213.517 31.2835 213.517 33.0978C213.517 34.912 214.987 36.3827 216.802 36.3827Z" stroke="#848400" stroke-width="0.3" stroke-linecap="round" stroke-linejoin="round"/>
<path d="M120.532 47.9559C121.649 47.9559 122.554 47.0509 122.554 45.9344C122.554 44.818 121.649 43.9129 120.532 43.9129C119.416 43.9129 118.511 44.818 118.511 45.9344C118.511 47.0509 119.416 47.9559 120.532 47.9559Z" stroke="#848400" stroke-width="0.3" stroke-linecap="round" stroke-linejoin="round"/>
<path d="M126.948 35.1193C128.065 35.1193 128.97 34.2143 128.97 33.0978C128.97 31.9814 128.065 31.0763 126.948 31.0763C125.832 31.0763 124.927 31.9814 124.927 33.0978C124.927 34.2143 125.832 35.1193 126.948 35.1193Z" stroke="#848400" stroke-width="0.3" stroke-linecap="round" stroke-linejoin="round"/>
<path d="M133.364 47.9559C134.481 47.9559 135.386 47.0509 135.386 45.9344C135.386 44.818 134.481 43.9129 133.364 43.9129C132.248 43.9129 131.343 44.818 131.343 45.9344C131.343 47.0509 132.248 47.9559 133.364 47.9559Z" stroke="#848400" stroke-width="0.3" stroke-linecap="round" stroke-linejoin="round"/>
<path d="M139.78 35.1193C140.897 35.1193 141.802 34.2143 141.802 33.0978C141.802 31.9814 140.897 31.0763 139.78 31.0763C138.664 31.0763 137.759 31.9814 137.759 33.0978C137.759 34.2143 138.664 35.1193 139.78 35.1193Z" stroke="#848400" stroke-width="0.3" stroke-linecap="round" stroke-linejoin="round"/>
<path d="M146.208 47.9559C147.325 47.9559 148.23 47.0509 148.23 45.9344C148.23 44.818 147.325 43.9129 146.208 43.9129C145.092 43.9129 144.187 44.818 144.187 45.9344C144.187 47.0509 145.092 47.9559 146.208 47.9559Z" stroke="#848400" stroke-width="0.3" stroke-linecap="round" stroke-linejoin="round"/>
<path d="M152.624 35.1193C153.741 35.1193 154.646 34.2143 154.646 33.0978C154.646 31.9814 153.741 31.0763 152.624 31.0763C151.508 31.0763 150.603 31.9814 150.603 33.0978C150.603 34.2143 151.508 35.1193 152.624 35.1193Z" stroke="#848400" stroke-width="0.3" stroke-linecap="round" stroke-linejoin="round"/>
<path d="M159.04 47.9559C160.157 47.9559 161.062 47.0509 161.062 45.9344C161.062 44.818 160.157 43.9129 159.04 43.9129C157.924 43.9129 157.019 44.818 157.019 45.9344C157.019 47.0509 157.924 47.9559 159.04 47.9559Z" stroke="#848400" stroke-width="0.3" stroke-linecap="round" stroke-linejoin="round"/>
<path d="M165.456 35.1193C166.573 35.1193 167.478 34.2143 167.478 33.0978C167.478 31.9814 166.573 31.0763 165.456 31.0763C164.34 31.0763 163.435 31.9814 163.435 33.0978C163.435 34.2143 164.34 35.1193 165.456 35.1193Z" stroke="#848400" stroke-width="0.3" stroke-linecap="round" stroke-linejoin="round"/>
<path d="M171.872 47.9559C172.989 47.9559 173.894 47.0509 173.894 45.9344C173.894 44.818 172.989 43.9129 171.872 43.9129C170.756 43.9129 169.851 44.818 169.851 45.9344C169.851 47.0509 170.756 47.9559 171.872 47.9559Z" stroke="#848400" stroke-width="0.3" stroke-linecap="round" stroke-linejoin="round"/>
<path d="M178.289 35.1193C179.405 35.1193 180.31 34.2143 180.31 33.0978C180.31 31.9814 179.405 31.0763 178.289 31.0763C177.172 31.0763 176.267 31.9814 176.267 33.0978C176.267 34.2143 177.172 35.1193 178.289 35.1193Z" stroke="#848400" stroke-width="0.3" stroke-linecap="round" stroke-linejoin="round"/>
<path d="M184.717 47.9559C185.833 47.9559 186.738 47.0509 186.738 45.9344C186.738 44.818 185.833 43.9129 184.717 43.9129C183.6 43.9129 182.695 44.818 182.695 45.9344C182.695 47.0509 183.6 47.9559 184.717 47.9559Z" stroke="#848400" stroke-width="0.3" stroke-linecap="round" stroke-linejoin="round"/>
<path d="M191.133 35.1193C192.249 35.1193 193.154 34.2143 193.154 33.0978C193.154 31.9814 192.249 31.0763 191.133 31.0763C190.016 31.0763 189.111 31.9814 189.111 33.0978C189.111 34.2143 190.016 35.1193 191.133 35.1193Z" stroke="#848400" stroke-width="0.3" stroke-linecap="round" stroke-linejoin="round"/>
<path d="M197.549 47.9559C198.665 47.9559 199.57 47.0509 199.57 45.9344C199.57 44.818 198.665 43.9129 197.549 43.9129C196.432 43.9129 195.527 44.818 195.527 45.9344C195.527 47.0509 196.432 47.9559 197.549 47.9559Z" stroke="#848400" stroke-width="0.3" stroke-linecap="round" stroke-linejoin="round"/>
<path d="M210.381 47.9559C211.497 47.9559 212.402 47.0509 212.402 45.9344C212.402 44.818 211.497 43.9129 210.381 43.9129C209.264 43.9129 208.359 44.818 208.359 45.9344C208.359 47.0509 209.264 47.9559 210.381 47.9559Z" stroke="#848400" stroke-width="0.3" stroke-linecap="round" stroke-linejoin="round"/>
<path d="M223.225 47.9559C224.341 47.9559 225.246 47.0509 225.246 45.9344C225.246 44.818 224.341 43.9129 223.225 43.9129C222.108 43.9129 221.203 44.818 221.203 45.9344C221.203 47.0509 222.108 47.9559 223.225 47.9559Z" stroke="#848400" stroke-width="0.3" stroke-linecap="round" stroke-linejoin="round"/>
<path d="M236.057 47.9559C237.173 47.9559 238.079 47.0509 238.079 45.9344C238.079 44.818 237.173 43.9129 236.057 43.9129C234.941 43.9129 234.035 44.818 234.035 45.9344C234.035 47.0509 234.941 47.9559 236.057 47.9559Z" stroke="#848400" stroke-width="0.3" stroke-linecap="round" stroke-linejoin="round"/>
<path d="M203.965 35.1193C205.081 35.1193 205.986 34.2143 205.986 33.0978C205.986 31.9814 205.081 31.0763 203.965 31.0763C202.848 31.0763 201.943 31.9814 201.943 33.0978C201.943 34.2143 202.848 35.1193 203.965 35.1193Z" stroke="#848400" stroke-width="0.3" stroke-linecap="round" stroke-linejoin="round"/>
<path d="M242.473 35.1193C243.59 35.1193 244.495 34.2143 244.495 33.0978C244.495 31.9814 243.59 31.0763 242.473 31.0763C241.357 31.0763 240.452 31.9814 240.452 33.0978C240.452 34.2143 241.357 35.1193 242.473 35.1193Z" stroke="#848400" stroke-width="0.3" stroke-linecap="round" stroke-linejoin="round"/>
<path d="M229.641 35.1193C230.757 35.1193 231.663 34.2143 231.663 33.0978C231.663 31.9814 230.757 31.0763 229.641 31.0763C228.525 31.0763 227.619 31.9814 227.619 33.0978C227.619 34.2143 228.525 35.1193 229.641 35.1193Z" stroke="#848400" stroke-width="0.3" stroke-linecap="round" stroke-linejoin="round"/>
<path d="M216.809 35.1193C217.925 35.1193 218.83 34.2143 218.83 33.0978C218.83 31.9814 217.925 31.0763 216.809 31.0763C215.692 31.0763 214.787 31.9814 214.787 33.0978C214.787 34.2143 215.692 35.1193 216.809 35.1193Z" stroke="#848400" stroke-width="0.3" stroke-linecap="round" stroke-linejoin="round"/>
<path d="M302.171 0.505118C300.469 0.505118 298.836 1.18133 297.632 2.38501C296.429 3.58868 295.752 5.22122 295.752 6.92347M315.015 6.92347C315.015 5.22122 314.339 3.58868 313.135 2.38501C311.931 1.18133 310.299 0.505118 308.597 0.505118M257.244 19.7554H276.499M315 6.91879V19.7555L334.255 19.7554M302.168 0.500488H308.587M295.752 19.7555V6.91879M0.505859 321.418V58.2656M334.261 19.7554H366.352M83.3091 39.0154C85.8625 39.0154 88.3113 38.0011 90.1168 36.1956C91.9223 34.39 92.9366 31.9412 92.9366 29.3879M0.505953 321.424C0.505953 326.53 2.53461 331.428 6.14563 335.039C9.75666 338.65 14.6543 340.679 19.761 340.679M385.613 321.418V39.0107M19.7661 340.674H366.357M19.761 39.0153C14.6543 39.0153 9.75666 41.044 6.14563 44.655C2.53461 48.266 0.505953 53.1636 0.505953 58.2704M102.569 19.7554H257.239M276.492 19.7554H295.747M385.608 39.0155C385.608 33.9087 383.579 29.0111 379.968 25.4001C376.357 21.7891 371.46 19.7604 366.353 19.7604M366.353 340.679C371.46 340.679 376.357 338.65 379.968 335.039C383.579 331.428 385.608 326.53 385.608 321.424M19.7661 39.0107H83.3078M102.561 19.7604C100.007 19.7604 97.5585 20.7747 95.753 22.5802C93.9475 24.3858 92.9331 26.8346 92.9331 29.3879" stroke="#848400" stroke-linecap="round" stroke-linejoin="round"/>
</g>
<defs>
<clipPath id="clip0">
<rect width="386" height="341" fill="white"/>
</clipPath>
</defs>
</svg>
