<?xml version="1.0" encoding="UTF-8"?><svg id="Layer_1" xmlns="http://www.w3.org/2000/svg" viewBox="0 0 789.58 344.89"><defs><style>.cls-1{fill:#241f20;}</style></defs><path style="transform: scale(0.7); transform-origin: 30% 50%" class="cls-1" d="m66.83,225.36c-7.79,4.24-3.97,17.68,4.6,20.55l108.86,36.32c.31.1.64.09.95-.03l114.62-47.29c1.16-.48,1.1-2.14-.09-2.54l-104.05-34.75c-9.35-3.11-13.24-16.43-1.99-22.51l102.75-55.57c7.79-4.24,3.97-17.68-4.6-20.55l-108.86-36.32c-.31-.1-.64-.09-.95.03l-114.62,47.29c-1.16.48-1.1,2.14.09,2.54l104.05,34.75c9.35,3.11,13.24,16.43,1.99,22.51l-102.75,55.57Z"/><g><g><path class="cls-1" d="m359.3,202.49l49.83-61.22h-48.45v-12.65h65.23v13.77l-49.08,60.97h52.21v12.9h-69.74v-13.77Z"/><path class="cls-1" d="m438.42,153.67h14.77v62.6h-14.77v-62.6Z"/><path class="cls-1" d="m465.08,153.67h14.65l-.25,13.9h.75c1.5-6.39,8.64-15.78,21.66-15.78,16.15,0,27.92,13.27,27.92,32.8s-11.14,33.55-27.42,33.55c-13.77,0-20.16-9.64-22.04-15.52h-.63v36.18h-14.65v-85.14Zm31.8,52.08c9.89,0,17.78-7.01,17.78-20.91s-7.76-20.78-17.78-20.78-17.53,7.01-17.53,20.78,7.51,20.91,17.53,20.91Z"/><path class="cls-1" d="m539.07,198.86v-70.24h14.52v67.73c0,4.88,1.88,7.64,6.89,7.64h4.01v12.27h-7.89c-11.52,0-17.53-5.76-17.53-17.4Z"/><path class="cls-1" d="m571.24,128.63h14.77v14.77h-14.77v-14.77Zm0,25.04h14.77v62.6h-14.77v-62.6Z"/><path class="cls-1" d="m598.03,153.67h14.65l-.25,16.03h.63c1.75-9.64,10.14-17.9,21.03-17.9,15.02,0,21.66,9.39,21.66,26.54v37.93h-14.77v-36.06c0-10.64-4.76-16.28-13.27-16.28-9.39,0-15.02,9.64-15.02,19.53v32.8h-14.65v-62.6Z"/><path class="cls-1" d="m663.76,184.97c0-20.41,13.15-33.18,32.05-33.18s31.17,10.89,31.17,31.43c0,2.25-.12,3.88-.37,5.13h-48.7c.5,12.14,8.14,18.4,18.15,18.4,7.64,0,13.65-3.51,15.65-10.89h14.4c-2.38,14.77-14.77,22.28-30.8,22.28-17.28,0-31.55-11.39-31.55-33.18Zm48.33-5.51c0-10.02-6.51-16.9-16.65-16.9s-16.53,7.01-17.15,16.9h33.8Z"/></g><rect class="cls-1" x="438.42" y="128.63" width="14.77" height="14.77"/></g></svg>
